PathFileType	4	(X/Y/Z)	C:/Users/opensim2020/Desktop/walking_exp_matlab/subject06_walking18_straight_02.trc																																																																																																																																											
DataRate	CameraRate	NumFrames	NumMarkers	Units	OrigDataRate	OrigDataStartFrame	OrigNumFrames																																																																																																																																							
100	100	4	47	mm	100	2537	326																																																																																																																																							
Frame#	Time	LFHD			RFHD			LBHD			RBHD			C7			T10			CLAV			STRN			RBAK			LSHO			LUPA			LELB			LFRM			LWRA			LWRB			LFIN			RSHO			RUPA			RELB			RFRM			RWRA			RWRB			RFIN			LASI			RASI			LPSI			RPSI			LTHI			LKNE			LTIB			LANK			LHEE			LTOE			RTHI			RKNE			RTIB			RANK			RHEE			RTOE			*39			*40			*41			*42			*43			*44			*45			*46		
		X1	Y1	Z1	X2	Y2	Z2	X3	Y3	Z3	X4	Y4	Z4	X5	Y5	Z5	X6	Y6	Z6	X7	Y7	Z7	X8	Y8	Z8	X9	Y9	Z9	X10	Y10	Z10	X11	Y11	Z11	X12	Y12	Z12	X13	Y13	Z13	X14	Y14	Z14	X15	Y15	Z15	X16	Y16	Z16	X17	Y17	Z17	X18	Y18	Z18	X19	Y19	Z19	X20	Y20	Z20	X21	Y21	Z21	X22	Y22	Z22	X23	Y23	Z23	X24	Y24	Z24	X25	Y25	Z25	X26	Y26	Z26	X27	Y27	Z27	X28	Y28	Z28	X29	Y29	Z29	X30	Y30	Z30	X31	Y31	Z31	X32	Y32	Z32	X33	Y33	Z33	X34	Y34	Z34	X35	Y35	Z35	X36	Y36	Z36	X37	Y37	Z37	X38	Y38	Z38	X39	Y39	Z39	X40	Y40	Z40	X41	Y41	Z41	X42	Y42	Z42	X43	Y43	Z43	X44	Y44	Z44	X45	Y45	Z45	X46	Y46	Z46	X47	Y47	Z47
																																																																																																																																														
286	2.85	466.50995	1654.32629	922.75659	468.89343	1647.5459	1054.3916	333.39352	1600.14343	926.45251	337.49136	1598.54053	1056.09668	332.00214	1443.32202	989.82751	307.02466	1113.73047	1012.76776	443.01215	1368.1095	992.77277	485.28568	1192.61499	997.24042	263.36716	1275.72229	1080.69983	384.68149	1388.91199	830.07996	362.4209	1185.7356	767.02716	345.11716	1075.0459	758.43103	355.39346	925.98071	730.38989	418.30273	808.19897	756.0871	350.47125	806.31287	733.28418	386.7077	723.67657	722.65424	399.62836	1408.92871	1152.43372	377.05307	1211.005	1247.56079	395.55542	1089.47437	1258.75537	426.04788	972.82074	1272.60046	498.86536	842.14911	1232.92188	450.37442	837.63098	1279.10315	497.32394	767.2088	1277.41321	497.30676	962.1134	906.83087	482.86993	959.14337	1126.63123	337.46231	985.95221	926.54211	334.93848	983.95001	1094.45886	462.14844	650.06506	836.41394	486.38962	489.37024	859.13391	498.12787	233.13367	864.76343	526.65204	63.00719	907.54688	493.49075	45.89741	958.19006	673.63263	41.42235	908.99292	393.50168	621.90912	1173.15979	378.19949	495.56552	1155.151	205.94466	288.88864	1155.70532	87.33724	141.45453	1121.68018	37.95501	143.61452	1081.4613	191.99995	31.63668	1096.77954	367.59879	1694.64819	982.37445	NaN	NaN	NaN	NaN	NaN	NaN	NaN	NaN	NaN	NaN	NaN	NaN	NaN	NaN	NaN	NaN	NaN	NaN	NaN	NaN	NaN
287	2.86	472.90491	1655.23584	920.90619	475.25314	1648.76355	1052.54138	339.97839	1600.65479	924.59686	343.95935	1599.34363	1054.27893	339.33932	1444.06128	988.21332	314.62155	1114.4032	1010.58655	450.30444	1369.04419	991.21027	492.89407	1193.63672	995.61133	270.82751	1276.44995	1079.0896	392.00858	1390.00354	828.5766	370.84598	1186.68237	765.3501	354.42407	1075.79431	756.72577	366.27359	926.96088	728.62573	429.86804	809.70209	755.54321	362.63724	807.22388	731.84668	399.60947	724.8222	721.73932	406.88144	1409.81995	1150.75708	384.21887	1212.14551	1246.48694	401.81476	1090.45544	1257.31189	431.59799	973.63837	1271.34778	503.69601	842.48285	1232.00964	455.06635	838.2301	1278.05005	501.5545	767.40082	1276.34839	505.03586	962.78174	905.29266	490.12225	960.09479	1124.87378	345.25903	986.87274	924.54968	342.32123	984.70404	1092.34412	468.50964	650.40009	835.47656	491.23196	489.30243	858.09949	500.5206	232.99002	864.93707	527.48462	63.03941	908.09369	494.09296	46.2169	958.65009	674.22321	40.53656	909.08478	402.92923	622.70654	1172.45776	389.1788	495.88675	1155.2616	213.93675	292.16238	1155.04016	92.89269	146.79912	1121.16895	44.72807	150.48859	1080.24805	193.11737	32.18903	1096.68628	373.85461	1695.33154	980.3772	NaN	NaN	NaN	NaN	NaN	NaN	NaN	NaN	NaN	NaN	NaN	NaN	NaN	NaN	NaN	NaN	NaN	NaN	NaN	NaN	NaN
288	2.87	479.31815	1655.98389	919.05054	481.65039	1649.79053	1050.65173	346.54044	1600.96497	922.89514	350.49445	1599.8335	1052.59045	346.64383	1444.58887	986.7478	321.94183	1115.09485	1008.46857	457.52762	1369.79236	989.70624	500.39191	1194.45569	994.01459	278.31143	1276.80225	1077.23645	399.34985	1390.95068	826.97546	379.31995	1187.52332	763.59686	363.59729	1076.54297	755.09961	377.19589	927.62274	727.43921	442.00558	811.23132	754.55182	374.91772	808.2254	730.14862	412.84531	725.96143	720.78821	413.92905	1410.47998	1149.14563	391.56448	1213.03174	1245.21399	408.23303	1091.29224	1255.86499	437.27274	974.25452	1270.11572	508.72086	842.64368	1230.9978	459.79907	838.55853	1276.83301	505.94806	767.49017	1275.24963	512.59283	963.22229	903.77057	497.37717	961.02759	1123.39099	353.14737	987.54004	922.50916	349.31442	985.45319	1090.20825	474.4324	650.53375	834.75806	495.98492	489.17389	857.05585	502.905	232.79872	865.04456	528.32776	62.99495	908.63324	494.65234	46.54592	959.13782	674.77118	39.68718	909.27405	412.25119	623.25983	1172.2699	400.58832	496.05969	1155.68921	222.4054	295.51709	1154.4353	98.83979	152.45471	1120.69861	51.47527	157.67789	1079.0376	194.41257	33.07986	1096.8385	380.09079	1695.92358	978.46912	NaN	NaN	NaN	NaN	NaN	NaN	NaN	NaN	NaN	NaN	NaN	NaN	NaN	NaN	NaN	NaN	NaN	NaN	NaN	NaN	NaN
289	2.88	485.62943	1656.66357	917.34625	487.95694	1650.75232	1048.91797	353.08145	1601.12695	921.28894	357.11612	1600.3064	1050.92236	353.91333	1445.14001	985.04254	329.31302	1115.54065	1006.16315	464.7572	1370.40552	988.19031	507.83014	1195.12866	992.40759	285.30252	1277.10754	1075.38	406.73703	1391.78455	825.43054	387.76947	1188.21204	761.85059	373.00098	1077.05981	753.27502	388.18567	928.38385	725.73535	454.53024	812.7901	753.51971	387.36813	808.95538	728.88922	426.4082	727.07513	719.85602	420.93939	1410.86353	1147.52832	398.72986	1213.65063	1243.93982	414.6087	1091.80066	1254.39575	443.0437	974.68018	1268.94678	513.7348	842.60071	1229.94189	464.9866	838.86078	1275.97021	510.50925	767.36102	1274.172	520.00085	963.50085	902.24457	504.34665	961.86255	1121.76489	360.32431	988.04639	920.25745	356.0307	985.8902	1088.0564	480.55212	650.59753	833.92456	500.67477	489.02103	856.03473	505.23962	232.6897	864.99878	529.11414	63.02181	909.1228	495.12927	46.83467	959.56421	675.23315	38.99196	909.72699	422.38242	623.4989	1171.58521	412.28857	496.14447	1156.20886	231.39537	298.9064	1154.00916	105.11504	158.38914	1120.21936	58.68834	165.31364	1078.23462	195.91101	34.41253	1096.64526	386.27844	1696.30054	976.67725	NaN	NaN	NaN	NaN	NaN	NaN	NaN	NaN	NaN	NaN	NaN	NaN	NaN	NaN	NaN	NaN	NaN	NaN	NaN	NaN	NaN
